<svg id="color_line" height="512" viewBox="0 0 74 74" width="512" xmlns="http://www.w3.org/2000/svg" data-name="color line"><path d="m21.915 20.39a8.163 8.163 0 0 0 -6.305 7.61 4.515 4.515 0 0 0 .1 1.054 8.1 8.1 0 0 0 -3.419 6.51 7.9 7.9 0 0 0 2.709 5.887 7.581 7.581 0 0 0 -1.032 3.825 8.152 8.152 0 0 0 5.145 7.362c.4 4.547 4.661 8.112 9.838 8.112h.073a6.168 6.168 0 0 0 6.276-5.928v-38.24c-.411-2.294-2.36-3.357-4.962-3.331-5.094.349-7.374 4.339-8.423 7.139z" fill="#fe7058"/><path d="m15.71 29.05a4.509 4.509 0 0 1 -.1-1.05 7.679 7.679 0 0 1 3.3-6.17 7.226 7.226 0 0 0 -1.19 3.96 4.513 4.513 0 0 0 .09 1.05 8.629 8.629 0 0 0 -2.1 2.21z" fill="#ea6453"/><path d="m34.58 57.54a6.361 6.361 0 0 1 -5.56 3.21h-.07c-5.18 0-9.44-3.57-9.84-8.11a8.173 8.173 0 0 1 -5.15-7.36 7.6 7.6 0 0 1 1.04-3.83 7.88 7.88 0 0 1 -2.71-5.89 8.1 8.1 0 0 1 3.41-6.5 7.774 7.774 0 0 0 -1.31 4.29 7.915 7.915 0 0 0 2.71 5.89 7.6 7.6 0 0 0 -1.03 3.83 8.147 8.147 0 0 0 5.15 7.36c.4 4.55 4.66 8.11 9.83 8.11h.08a6.52 6.52 0 0 0 3.45-1z" fill="#ea6453"/><g fill="#323c6b"><path d="m25.147 41.964a.5.5 0 0 1 -.382-.177 5.979 5.979 0 0 0 -4.506-2.487c-2.744 0-4.86 2.467-4.881 2.492a.5.5 0 0 1 -.764-.646c.1-.116 2.442-2.846 5.645-2.846a6.92 6.92 0 0 1 5.269 2.846.5.5 0 0 1 -.381.823z"/><path d="m21.025 39.351a.5.5 0 0 1 -.165-.972 5.693 5.693 0 0 0 3.381-3.491.5.5 0 0 1 .968.253 6.61 6.61 0 0 1 -4.021 4.183.5.5 0 0 1 -.163.027z"/><path d="m26.727 21.552a.5.5 0 0 1 -.227-.052 6.759 6.759 0 0 0 -4.461-.624.5.5 0 0 1 -.269-.963 7.644 7.644 0 0 1 5.184.7.5.5 0 0 1 -.228.945z"/><path d="m19.274 53.136h-.174a.5.5 0 0 1 .006-1h.167c3.093 0 4.794-1.144 5.68-2.113a.5.5 0 0 1 .738.675c-1.022 1.118-2.962 2.438-6.417 2.438z"/><path d="m38.7 20.863h-3.4a.5.5 0 0 1 0-1h3.4a.5.5 0 0 1 0 1z"/><path d="m38.7 54.137h-3.4a.5.5 0 0 1 0-1h3.4a.5.5 0 0 1 0 1z"/></g><circle cx="28.645" cy="22.191" fill="#ea6453" r="2.237"/><path d="m28.645 24.928a2.737 2.737 0 1 1 2.737-2.737 2.74 2.74 0 0 1 -2.737 2.737zm0-4.474a1.737 1.737 0 1 0 1.737 1.737 1.739 1.739 0 0 0 -1.737-1.737z" fill="#323c6b"/><circle cx="25.244" cy="32.846" fill="#ea6453" r="2.237"/><path d="m25.244 35.583a2.737 2.737 0 1 1 2.737-2.737 2.74 2.74 0 0 1 -2.737 2.737zm0-4.474a1.737 1.737 0 1 0 1.737 1.737 1.739 1.739 0 0 0 -1.737-1.737z" fill="#323c6b"/><circle cx="26.408" cy="48.401" fill="#ea6453" r="2.237"/><path d="m26.408 51.138a2.737 2.737 0 1 1 2.737-2.738 2.74 2.74 0 0 1 -2.737 2.738zm0-4.474a1.737 1.737 0 1 0 1.737 1.736 1.739 1.739 0 0 0 -1.737-1.735z" fill="#323c6b"/><path d="m37 72.125a34.873 34.873 0 0 1 -28.012-13.937.5.5 0 1 1 .8-.6 34.123 34.123 0 0 0 61.337-20.588 34.414 34.414 0 0 0 -.56-6.129.5.5 0 1 1 .984-.179 35.1 35.1 0 0 1 -34.549 41.433z" fill="#323c6b"/><path d="m3.9 47.671a.5.5 0 0 1 -.478-.354 35.126 35.126 0 0 1 63.887-28.063.5.5 0 0 1 -.862.506 34.129 34.129 0 0 0 -62.073 27.264.5.5 0 0 1 -.332.625.494.494 0 0 1 -.142.022z" fill="#323c6b"/><path d="m67.032 20.292h-.05l-8.162-.82a.5.5 0 0 1 -.448-.547.51.51 0 0 1 .547-.448l7.664.77.77-7.664a.5.5 0 1 1 1 .1l-.82 8.162a.5.5 0 0 1 -.501.447z" fill="#323c6b"/><path d="m9.279 66.257a.5.5 0 0 1 -.5-.492l-.126-8.2a.5.5 0 0 1 .492-.508l8.2-.126a.475.475 0 0 1 .508.492.5.5 0 0 1 -.492.508l-7.7.119.119 7.7a.5.5 0 0 1 -.492.508z" fill="#323c6b"/><path d="m51.085 20.39a8.163 8.163 0 0 1 6.305 7.61 4.515 4.515 0 0 1 -.1 1.054 8.1 8.1 0 0 1 3.419 6.51 7.9 7.9 0 0 1 -2.709 5.887 7.581 7.581 0 0 1 1.032 3.825 8.152 8.152 0 0 1 -5.145 7.362c-.4 4.547-4.661 8.112-9.838 8.112h-.069a6.168 6.168 0 0 1 -6.28-5.928v-38.24c.411-2.294 2.36-3.357 4.962-3.331 5.094.349 7.374 4.339 8.423 7.139z" fill="#fe7058"/><path d="m48.92 18.47a13.367 13.367 0 0 0 -2.2-3.93 10.619 10.619 0 0 1 3.81 4.54 9.721 9.721 0 0 0 -1.61-.61z" fill="#ea6453"/><path d="m58 41.45a7.6 7.6 0 0 1 1.04 3.83 8.173 8.173 0 0 1 -5.15 7.36c-.4 4.54-4.66 8.11-9.84 8.11h-.07a6.382 6.382 0 0 1 -5.24-2.7 6.533 6.533 0 0 0 3.07.78h.08c5.17 0 9.43-3.56 9.83-8.11a8.147 8.147 0 0 0 5.15-7.36 7.6 7.6 0 0 0 -1.03-3.83 7.915 7.915 0 0 0 2.71-5.89 8.132 8.132 0 0 0 -3.42-6.51 4.513 4.513 0 0 0 .09-1.05 7.313 7.313 0 0 0 -1.65-4.6 7.756 7.756 0 0 1 3.82 6.52 4.509 4.509 0 0 1 -.1 1.05 8.1 8.1 0 0 1 3.42 6.51 7.88 7.88 0 0 1 -2.71 5.89z" fill="#ea6453"/><path d="m47.853 41.964a.5.5 0 0 1 -.381-.823 6.92 6.92 0 0 1 5.269-2.841c3.2 0 5.547 2.73 5.645 2.846a.5.5 0 0 1 -.763.646c-.021-.025-2.149-2.492-4.882-2.492h-.006a5.981 5.981 0 0 0 -4.5 2.492.5.5 0 0 1 -.382.172z" fill="#323c6b"/><path d="m51.975 39.351a.5.5 0 0 1 -.164-.027 6.61 6.61 0 0 1 -4.021-4.183.5.5 0 0 1 .968-.253 5.655 5.655 0 0 0 3.38 3.49.5.5 0 0 1 -.164.973z" fill="#323c6b"/><path d="m46.273 21.552a.5.5 0 0 1 -.228-.945 7.644 7.644 0 0 1 5.184-.7.5.5 0 0 1 -.269.963 6.759 6.759 0 0 0 -4.46.63.5.5 0 0 1 -.227.052z" fill="#323c6b"/><path d="m53.726 53.136c-3.456 0-5.4-1.32-6.418-2.438a.5.5 0 1 1 .738-.675c.9.986 2.661 2.157 5.84 2.112a.5.5 0 1 1 .013 1z" fill="#323c6b"/><circle cx="44.355" cy="22.191" fill="#ea6453" r="2.237"/><path d="m44.355 24.928a2.737 2.737 0 1 1 2.737-2.737 2.74 2.74 0 0 1 -2.737 2.737zm0-4.474a1.737 1.737 0 1 0 1.737 1.737 1.739 1.739 0 0 0 -1.737-1.737z" fill="#323c6b"/><circle cx="47.756" cy="32.846" fill="#ea6453" r="2.237"/><path d="m47.756 35.583a2.737 2.737 0 1 1 2.737-2.737 2.74 2.74 0 0 1 -2.737 2.737zm0-4.474a1.737 1.737 0 1 0 1.737 1.737 1.739 1.739 0 0 0 -1.737-1.737z" fill="#323c6b"/><circle cx="46.592" cy="48.401" fill="#ea6453" r="2.237"/><path d="m46.592 51.138a2.737 2.737 0 1 1 2.737-2.738 2.74 2.74 0 0 1 -2.737 2.738zm0-4.474a1.737 1.737 0 1 0 1.737 1.736 1.739 1.739 0 0 0 -1.737-1.735z" fill="#323c6b"/><path d="m44.053 61.25a6.67 6.67 0 0 1 -6.853-6.428v-38.24c.439-2.5 2.451-3.869 5.467-3.831 4.029.272 7.057 2.77 8.8 7.229a8.676 8.676 0 0 1 6.424 8.02 5.964 5.964 0 0 1 -.049.843 8.54 8.54 0 0 1 3.371 6.721 8.345 8.345 0 0 1 -2.585 5.988 8.008 8.008 0 0 1 .908 3.727 8.658 8.658 0 0 1 -5.178 7.7c-.581 4.66-5.045 8.271-10.305 8.271zm-1.5-47.5c-1.452 0-3.907.391-4.36 2.921l.007 38.151a5.649 5.649 0 0 0 5.785 5.428c4.926 0 9.028-3.363 9.409-7.656a.5.5 0 0 1 .3-.415 7.694 7.694 0 0 0 4.844-6.9 7.039 7.039 0 0 0 -.965-3.574.5.5 0 0 1 .1-.622 7.4 7.4 0 0 0 2.545-5.519 7.588 7.588 0 0 0 -3.218-6.11.5.5 0 0 1 -.189-.521 4.064 4.064 0 0 0 .08-.933 7.709 7.709 0 0 0 -5.94-7.125.5.5 0 0 1 -.334-.307c-1.6-4.271-4.287-6.565-7.989-6.816z" fill="#323c6b"/><path d="m29.023 61.25c-5.334 0-9.8-3.611-10.38-8.274a8.658 8.658 0 0 1 -5.178-7.7 8.008 8.008 0 0 1 .908-3.727 8.345 8.345 0 0 1 -2.585-5.988 8.54 8.54 0 0 1 3.371-6.721 5.964 5.964 0 0 1 -.05-.84 8.676 8.676 0 0 1 6.428-8.018c1.74-4.459 4.768-6.957 8.768-7.228 3.03 0 5.057 1.333 5.488 3.742l.007 38.326a6.65 6.65 0 0 1 -6.777 6.428zm1.4-47.5h-.083c-3.673.25-6.361 2.543-7.96 6.815a.5.5 0 0 1 -.334.307 7.709 7.709 0 0 0 -5.937 7.128 4.064 4.064 0 0 0 .083.935.5.5 0 0 1 -.189.521 7.588 7.588 0 0 0 -3.216 6.107 7.4 7.4 0 0 0 2.545 5.519.5.5 0 0 1 .1.622 7.039 7.039 0 0 0 -.965 3.574 7.694 7.694 0 0 0 4.844 6.9.5.5 0 0 1 .3.415c.38 4.293 4.483 7.656 9.34 7.656a5.667 5.667 0 0 0 5.849-5.427v-38.24c-.444-2.44-2.893-2.832-4.373-2.832z" fill="#323c6b"/><path d="m32.609 37.622a.567.567 0 0 1 -.567-.567v-6.213a.567.567 0 1 1 1.135 0v6.213a.567.567 0 0 1 -.568.567z" fill="#fff"/><path d="m32.609 39.89a.567.567 0 0 1 -.567-.567v-.3a.567.567 0 1 1 1.135 0v.3a.567.567 0 0 1 -.568.567z" fill="#fff"/><path d="m41.875 10.8a.5.5 0 0 1 -.03-1l.234-.019c.161-.015.321-.029.49-.029a.5.5 0 0 1 0 1c-.138 0-.269.013-.4.024l-.264.021z" fill="#323c6b"/><path d="m52.223 16.531a.5.5 0 0 1 -.422-.23 11.552 11.552 0 0 0 -7.013-5.224.5.5 0 0 1 .236-.972 12.534 12.534 0 0 1 7.619 5.656.5.5 0 0 1 -.421.77z" fill="#323c6b"/><path d="m29.043 64.25a14.269 14.269 0 0 1 -5.159-.939.5.5 0 1 1 .356-.935 13.14 13.14 0 0 0 4.707.874 9.045 9.045 0 0 0 5.5-1.836.5.5 0 1 1 .6.8 9.971 9.971 0 0 1 -6.004 2.036z" fill="#323c6b"/><path d="m21.262 61.875a.5.5 0 0 1 -.283-.088c-.273-.188-.535-.389-.792-.595a.5.5 0 1 1 .626-.78c.237.191.48.377.733.551a.5.5 0 0 1 -.284.912z" fill="#323c6b"/></svg>