<svg id="line" height="512" viewBox="0 0 64 64" width="512" xmlns="http://www.w3.org/2000/svg"><path d="m61.373 41.608-.957-3.19a39.478 39.478 0 0 1 -1.616-9.374 16.888 16.888 0 0 0 -33.754.843 21.838 21.838 0 0 0 4.578 13.342 10.331 10.331 0 0 1 2.157 6.989l-.733 11.72a1 1 0 0 0 1 1.062h15a1 1 0 0 0 .993-1.124l-.862-6.876h6.521a4 4 0 0 0 3.975-4.441l-.534-4.759 1.945-.39a3 3 0 0 0 2.287-3.802z" fill="#c4a2fc"/><g fill="#151a6a"><path d="m46 20.5a9.5 9.5 0 0 0 -2.72-6.641 8 8 0 0 0 -11.811-8.772 7.99 7.99 0 0 0 -12.632-1.736 7.984 7.984 0 0 0 -10.304 7.049c-3.739 1.632-6.033 4.5-6.033 7.6 0 3.95 3.672 7.392 9.031 8.567.4 3.65 4.635 6.433 9.969 6.433.375 0 .755-.016 1.15-.049a5.583 5.583 0 0 0 6.826 1.449l4.29 6.742a3 3 0 0 0 3.645 1.175l1.693-.677a3 3 0 0 0 1.721-3.762l-2.756-8.009a9.432 9.432 0 0 0 7.931-9.369zm-9.313 7.49a1 1 0 0 0 -.921 1.324l3.169 9.211a1 1 0 0 1 -.574 1.253l-1.692.677a1 1 0 0 1 -1.216-.392l-4.82-7.574a1 1 0 0 0 -1.445-.263 3.694 3.694 0 0 1 -5.319-.934 1.007 1.007 0 0 0 -.909-.383 12.387 12.387 0 0 1 -1.46.091c-4.336 0-8-2.289-7.994-5.058a2 2 0 0 1 1.994-1.942 1 1 0 0 0 0-2 4 4 0 0 0 -3.725 2.572c-4.327-1-7.275-3.621-7.275-6.572 0-2.418 2.055-4.713 5.364-5.989a1.1 1.1 0 0 0 .636-1.011 6 6 0 0 1 8.252-5.559 1 1 0 0 0 1.148-.285 5.992 5.992 0 0 1 10.23 1.776 1 1 0 0 0 1.573.427 5.978 5.978 0 0 1 4.731-1.289 6.054 6.054 0 0 1 4.94 4.7 5.952 5.952 0 0 1 -.171 3.083 1 1 0 0 0 .285 1.056 7.486 7.486 0 0 1 -4.8 13.078z"/><path d="m21.639 12.957a1 1 0 0 0 0-1.414 5.505 5.505 0 0 0 -7.778 0 1 1 0 0 0 1.414 1.414 3.505 3.505 0 0 1 4.95 0 1 1 0 0 0 1.414 0z"/><path d="m28.7 16.952a1 1 0 0 0 1.414 1.414 3.5 3.5 0 0 1 4.95 0 1 1 0 0 0 1.414-1.414 5.507 5.507 0 0 0 -7.778 0z"/><path d="m19.7 23.952a1 1 0 0 0 1.414 1.414 3.5 3.5 0 0 1 4.95 0 1 1 0 0 0 1.414-1.414 5.508 5.508 0 0 0 -7.778 0z"/></g></svg>