<svg id="Layer_1" height="512" viewBox="0 0 512 512" width="512" xmlns="http://www.w3.org/2000/svg"><g><g><g><g><path d="m432 208h-304v288h160v-48h96c35.346 0 64-28.654 64-64v-160c0-8.836-7.163-16-16-16z" fill="#fab991"/></g></g><g><g><path d="m376 400h40c0-13.255-10.745-24-24-24h-40c0 13.255 10.745 24 24 24z" fill="#463c4b"/></g></g><g><g><path d="m112 208c-8.837 0-16 7.164-16 16v160c0 17.673 14.327 32 32 32h80c17.673 0 32-14.327 32-32v-80c26.51 0 48-21.49 48-48v-48z" fill="#463c4b"/></g></g><g><g><path d="m240 256c-26.51 0-48 21.49-48 48s21.49 48 48 48z" fill="#f0915a"/></g></g><g><g><path d="m288 496h-160c0-26.51 21.49-48 48-48h112z" fill="#f0915a"/></g></g><g><g><path d="m400 352c-13.255 0-24-10.745-24-24v-56c26.51 0 48 21.49 48 48v8c0 13.255-10.745 24-24 24z" fill="#f0915a"/></g></g><g><g><path d="m432 256c0 8.837-7.163 16-16 16s-16-7.163-16-16l16-16c8.837 0 16 7.163 16 16z" fill="#463c4b"/></g></g><g><g><circle cx="336" cy="256" fill="#463c4b" r="16"/></g></g></g><g><g><circle cx="160" cy="112" fill="#faa019" r="80"/></g></g><g><g><path d="m160 32c-44.183 0-80 35.817-80 80h48c17.673 0 32-14.327 32-32z" fill="#ffd205"/></g></g><g><g><circle cx="128" cy="92" fill="#463c4b" r="12"/></g></g><g><g><circle cx="192" cy="92" fill="#463c4b" r="12"/></g></g><path d="m309.657 50.343-24-24c-2.287-2.288-5.728-2.972-8.718-1.734s-4.939 4.155-4.939 7.391v16h-32c-4.418 0-8 3.582-8 8s3.582 8 8 8h32v16c0 3.236 1.949 6.153 4.938 7.391.99.41 2.029.609 3.06.609 2.082 0 4.128-.813 5.659-2.343l24-24c3.124-3.124 3.124-8.19 0-11.314z" fill="#faa019"/><path d="m296 168h-32v-16c0-3.236-1.949-6.153-4.938-7.391-2.99-1.239-6.431-.553-8.718 1.734l-24 24c-3.125 3.124-3.125 8.189 0 11.313l24 24c1.53 1.531 3.576 2.343 5.659 2.343 1.03 0 2.07-.199 3.06-.609 2.989-1.238 4.938-4.155 4.938-7.391v-16h32c4.418 0 8-3.582 8-8s-3.583-7.999-8.001-7.999z" fill="#9b5faa"/><g><g><path d="m96 120c-4.418 0-8-3.582-8-8 0-39.701 32.299-72 72-72 4.418 0 8 3.582 8 8s-3.582 8-8 8c-30.878 0-56 25.122-56 56 0 4.418-3.582 8-8 8z" fill="#ffff50"/></g></g><g><g><path d="m160 164c-19.613 0-38.015-9.613-49.223-25.715-1.262-1.813-.815-4.306.998-5.568s4.306-.815 5.568.998c9.714 13.954 25.66 22.285 42.657 22.285s32.943-8.331 42.657-22.285c1.262-1.813 3.755-2.259 5.568-.998 1.813 1.262 2.26 3.755.998 5.568-11.208 16.102-29.61 25.715-49.223 25.715z" fill="#463c4b"/></g></g><g><g><circle cx="381.333" cy="112" fill="#9b5faa" r="80"/></g></g><g><g><path d="m381.333 32c-44.183 0-80 35.817-80 80h48c17.673 0 32-14.327 32-32z" fill="#b97dc8"/></g></g><g><g><path d="m337.333 92c0 6.627 5.373 12 12 12s12-5.373 12-12l-12-12c-6.627 0-12 5.373-12 12z" fill="#463c4b"/></g></g><g><g><path d="m413.333 80-12 12c0 6.627 5.373 12 12 12s12-5.373 12-12-5.372-12-12-12z" fill="#463c4b"/></g></g><g><g><path d="m317.333 120c-4.418 0-8-3.582-8-8 0-39.701 32.299-72 72-72 4.418 0 8 3.582 8 8s-3.582 8-8 8c-30.878 0-56 25.122-56 56 0 4.418-3.581 8-8 8z" fill="#d79be6"/></g></g><g><g><path d="m335.39 164c-.789 0-1.585-.233-2.282-.717-1.813-1.262-2.26-3.755-.998-5.568 11.208-16.102 29.609-25.715 49.223-25.715 19.613 0 38.015 9.613 49.223 25.715 1.262 1.813.815 4.306-.998 5.568s-4.305.815-5.568-.998c-9.713-13.954-25.659-22.285-42.657-22.285s-32.944 8.331-42.657 22.285c-.777 1.117-2.021 1.715-3.286 1.715z" fill="#463c4b"/></g></g></g></svg>