<svg id="Layer_1" enable-background="new 0 0 512.002 512.002" height="512" viewBox="0 0 512.002 512.002" width="512" xmlns="http://www.w3.org/2000/svg"><g><g clip-rule="evenodd" fill-rule="evenodd"><path d="m80.664 251.692-2.159-110.12c-.334-17.047-14.555-30.721-31.602-30.387l-2.08.041c-4.949.097-8.822 4.224-8.822 9.175v183.635c0 18.783 4.155 35.926 17.808 51.261l56.977 64.595v82.108h93.471v-79.441c-.906-46.191-4.729-76.88-48.156-118.637-43.426-41.755-57.796-62.881-75.437-52.23z" fill="#ffd0c7"/><path d="m355.9 303.924c-43.427 41.757-47.25 72.446-48.156 118.637v79.441h93.471v-82.108l56.977-64.595c13.653-15.335 17.808-32.478 17.808-51.261v-183.636c0-4.951-3.873-9.078-8.822-9.175l-2.079-.041c-17.046-.334-31.267 13.34-31.602 30.387l-2.159 110.12c-17.641-10.652-32.011 10.474-75.438 52.231z" fill="#ffd0c7"/><path d="m256.001 250c49.531-13.283 193.75-144.321 118.837-219.301-27.574-27.599-72.694-27.599-100.268-.001-11.052 11.062-27.234 9.912-37.138 0-27.574-27.598-72.695-27.598-100.268 0-74.913 74.98 69.306 206.019 118.837 219.302z" fill="#ff5d7d"/></g><g><path d="m402.306 107.445c8.767-32.704 1.715-61.687-20.393-83.815-15.225-15.237-35.543-23.63-57.209-23.63s-41.982 8.393-57.208 23.63c-4.195 4.2-8.681 5.018-11.71 4.937-4.184-.09-8.189-1.843-11.279-4.937-15.226-15.237-35.542-23.63-57.209-23.63-21.666 0-41.982 8.393-57.208 23.631-22.108 22.128-29.16 51.11-20.393 83.814 18.968 70.756 105.757 142.034 143.714 152.213.848.228 1.719.342 2.59.342s1.742-.114 2.59-.342c37.957-10.179 124.747-81.457 143.715-152.213zm-78.368 84.107c-27.324 26.626-53.594 43.09-67.938 47.994-14.344-4.904-40.613-21.368-67.938-47.994-30.65-29.868-51.621-61.577-59.049-89.285-6.909-25.773-1.787-47.475 15.224-64.5 11.449-11.457 26.741-17.767 43.061-17.767 16.321 0 31.613 6.31 43.061 17.767 6.754 6.759 15.631 10.593 24.997 10.795 9.756.221 19.122-3.623 26.289-10.795 11.447-11.457 26.739-17.767 43.059-17.767s31.613 6.31 43.061 17.766c17.011 17.026 22.133 38.728 15.223 64.501-7.428 27.708-28.399 59.417-59.05 89.285z"/><path d="m314.054 66.899c-13.009 0-23.593 10.747-23.593 23.956v21.15c0 13.726-10.758 24.893-23.98 24.893h-.479v-49.999h2.6c5.522 0 10-4.478 10-10s-4.478-10-10-10h-25.199c-5.522 0-10 4.478-10 10s4.478 10 10 10h2.6v49.999h-.479c-13.223 0-23.98-11.167-23.98-24.893v-21.15c0-13.209-10.583-23.956-23.592-23.956-5.522 0-10 4.478-10 10s4.478 10 10 10c1.947 0 3.592 1.812 3.592 3.956v21.15c0 24.754 19.729 44.893 43.98 44.893h.479v30.002h-2.6c-5.522 0-10 4.478-10 10s4.478 10 10 10h25.199c5.522 0 10-4.478 10-10s-4.478-10-10-10h-2.6v-30.002h.479c24.251 0 43.98-20.139 43.98-44.893v-21.15c0-2.145 1.646-3.956 3.593-3.956 5.522 0 10-4.478 10-10s-4.478-10-10-10z"/><path d="m467.376 101.229-2.08-.041c-10.927-.229-21.285 3.857-29.195 11.465-7.912 7.607-12.387 17.809-12.601 28.724l-1.914 97.599c-5.638.183-11.466 2.255-17.571 6.225-9.051 5.884-19.108 15.93-33.029 29.835-6.418 6.412-13.693 13.679-22.016 21.682-46.237 44.458-50.301 78.614-51.224 125.648-.001.065-.002.131-.002.196v79.441c0 5.522 4.478 10 10 10h93.472c5.522 0 10-4.478 10-10v-78.328l54.445-61.727c13.875-15.584 20.339-33.986 20.34-57.911v-183.636c0-10.369-8.355-18.97-18.625-19.172zm-1.375 202.807c-.001 18.987-4.713 32.746-15.309 44.646l-56.977 64.596c-1.611 1.827-2.5 4.18-2.5 6.615v72.108h-73.472v-69.341c.849-43.088 3.506-71.547 45.087-111.529 8.46-8.135 15.807-15.473 22.289-21.947 13.062-13.047 22.498-22.474 29.795-27.217 6.638-4.315 8.957-3.098 11.111-1.802.084.053.168.104.254.154.532.336 1.638 1.209 1.988 4.347 1.457 13.036-12.113 41.018-37.344 65.278-3.98 3.828-4.104 10.158-.276 14.14 3.828 3.98 10.159 4.106 14.14.276 27.918-26.845 45.747-60.529 43.356-81.915-.801-7.173-3.583-12.06-6.713-15.361l2.064-105.316c.109-5.574 2.406-10.795 6.467-14.699s9.353-6.005 14.939-5.886l1.099.021v182.832z"/><path d="m193.475 333.148c-2.918-4.688-9.086-6.124-13.773-3.206-4.689 2.919-6.124 9.086-3.205 13.774 15.523 24.94 17.161 48.458 17.762 78.943v69.342h-73.471v-72.108c0-2.436-.889-4.788-2.501-6.615l-57.008-64.63c-10.564-11.866-15.276-25.625-15.277-44.612v-182.831l1.098-.021c5.562-.118 10.879 1.98 14.94 5.886 4.061 3.904 6.357 9.125 6.467 14.699l2.064 105.316c-3.13 3.302-5.912 8.188-6.713 15.361-2.391 21.386 15.438 55.07 43.356 81.915 3.98 3.828 10.312 3.703 14.14-.276 3.828-3.981 3.704-10.312-.276-14.14-25.23-24.261-38.801-52.242-37.344-65.278.351-3.138 1.457-4.011 1.988-4.347.074-.043.147-.088.221-.133 5.08-2.993 10.622-.892 31.137 19.256 3.94 3.872 10.272 3.812 14.142-.128s3.813-10.271-.128-14.142c-12.93-12.699-26.191-25.724-40.678-26.209l-1.913-97.589c-.214-10.915-4.688-21.116-12.601-28.724-7.911-7.607-18.318-11.682-29.196-11.465l-2.079.041c-10.27.202-18.625 8.804-18.625 19.173v183.636c.001 23.924 6.465 42.326 20.31 57.876l54.477 61.761v78.328c0 5.522 4.478 10 10 10h93.471c5.522 0 10-4.478 10-10v-79.441c0-.065-.001-.131-.002-.196-.643-32.663-2.579-59.971-20.783-89.216z"/><path d="m166.109 303.924c0-5.522-4.478-10-10-10h-.008c-5.522 0-9.996 4.478-9.996 10s4.481 10 10.004 10 10-4.478 10-10z"/></g></g></svg>