<svg id="Layer_1" enable-background="new 0 0 512 512" height="512" viewBox="0 0 512 512" width="512" xmlns="http://www.w3.org/2000/svg"><g><path clip-rule="evenodd" d="m196 10h120c5.5 0 10 4.5 10 10v20.2c0 5.5-4.5 10-10 10h-10.001c-11 0-20 9-20 20v226.4h10c55.001 0 100.001-45.001 100.001-100.001v-146.599c0-22 18-40 40-40h56c5.5 0 10 4.5 10 10v20.2c0 5.5-4.5 10-10 10h-13c-12.651 0-23 10.35-23 23v123.399c0 88-72.001 160.001-160.001 160.001h-10v85.2c0 11 9 20 20 20h10.001c5.5 0 10 4.5 10 10v20.2c0 5.5-4.5 10-10 10h-120c-5.5 0-10-4.5-10-10v-20.2c0-5.5 4.5-10 10-10h10.001c11 0 20-9 20-20v-85.2h-10c-88 0-160.001-72-160.001-160.001v-123.399c0-12.651-10.35-23-23-23h-13c-5.5 0-10-4.5-10-10v-20.2c0-5.5 4.5-10 10-10h56c22 0 40 18 40 40v146.598c0 55 45 100.001 100.001 100.001h10v-226.399c0-11-9-20-20-20h-10.001c-5.5 0-10-4.5-10-10v-20.2c0-5.5 4.5-10 10-10z" fill="#ff5d7d" fill-rule="evenodd"/><g><path d="m492 0h-55.999c-27.57 0-50 22.43-50 50v146.599c0 49.627-40.374 90.001-90.001 90.001l-.001-216.4c0-5.514 4.486-10 10-10h10.001c11.028 0 20-8.972 20-20v-20.2c0-11.028-8.972-20-20-20h-120c-11.028 0-20 8.972-20 20v20.2c0 11.028 8.972 20 20 20h10.001c5.514 0 10 4.486 10 10v68.2c0 5.523 4.477 10 10 10s10-4.477 10-10v-68.2c0-16.542-13.458-30-30-30h-10.001v-20.2h120v20.2h-10.001c-16.542 0-30 13.458-30 30v226.4c0 5.523 4.478 10 10 10h10.001c60.655 0 110.001-49.347 110.001-110.001v-146.599c0-16.542 13.458-30 30-30h55.999v20.2h-13c-18.196 0-33 14.804-33 33v123.399c0 82.71-67.29 150-150 150h-10.001c-5.522 0-10 4.477-10 10v85.201c0 16.542 13.458 30 30 30h10.001v20.2h-120v-20.2h10.001c16.542 0 30-13.458 30-30v-85.2c0-5.523-4.477-10-10-10h-10c-82.711 0-150.001-67.29-150.001-150.001v-123.399c0-18.196-14.804-33-33-33h-13v-20.2h56c16.542 0 30 13.458 30 30v146.599c0 60.655 49.346 110.001 110.001 110.001h10c5.523 0 10-4.477 10-10v-68.2c0-5.523-4.477-10-10-10s-10 4.477-10 10v58.2c-49.626 0-90.001-40.375-90.001-90.001v-146.599c0-27.57-22.43-50-50-50h-56c-11.028 0-20 8.972-20 20v20.2c0 11.028 8.972 20 20 20h13c7.168 0 13 5.832 13 13v123.399c0 45.232 17.732 87.875 49.929 120.072 32.198 32.197 74.84 49.929 120.072 49.929v75.201c0 5.514-4.486 10-10 10h-10.001c-11.028 0-20 8.972-20 20v20.199c0 11.028 8.972 20 20 20h120c11.028 0 20-8.972 20-20v-20.2c0-11.028-8.972-20-20-20h-10.001c-5.514 0-10-4.486-10-10v-75.2h.001c45.231 0 87.874-17.732 120.071-49.929s49.929-74.84 49.929-120.072v-123.399c0-7.168 5.832-13 13-13h13c11.028 0 20-8.972 20-20v-20.2c0-11.028-8.972-20-20-20z"/><path d="m226.001 193.4c5.523 0 10-4.477 10-10s-4.477-10-10-10h-.008c-5.523 0-9.996 4.477-9.996 10s4.481 10 10.004 10z"/></g></g></svg>